HIERARCHY
ROOT Hips
{
	OFFSET 0.00000 0.00000 0.00000
	CHANNELS 6 Xposition Yposition Zposition Zrotation Yrotation Xrotation 
	JOINT LHipJoint
	{
		OFFSET 0 0 0
		CHANNELS 3 Zrotation Yrotation Xrotation
		JOINT LeftUpLeg
		{
			OFFSET 1.61328 -1.70571 0.84375
			CHANNELS 3 Zrotation Yrotation Xrotation
			JOINT LeftLeg
			{
				OFFSET 2.32400 -6.38513 0.00000
				CHANNELS 3 Zrotation Yrotation Xrotation
				JOINT LeftFoot
				{
					OFFSET 2.58843 -7.11166 0.00000
					CHANNELS 3 Zrotation Yrotation Xrotation
					JOINT LeftToeBase
					{
						OFFSET 0.17200 -0.47257 2.47970
						CHANNELS 3 Zrotation Yrotation Xrotation
						End Site
						{
							OFFSET 0.00000 -0.00000 1.26912
						}
					}
				}
			}
		}
	}
	JOINT RHipJoint
	{
		OFFSET 0 0 0
		CHANNELS 3 Zrotation Yrotation Xrotation
		JOINT RightUpLeg
		{
			OFFSET -1.49930 -1.70570 0.84375
			CHANNELS 3 Zrotation Yrotation Xrotation
			JOINT RightLeg
			{
				OFFSET -2.30458 -6.33178 0.00000
				CHANNELS 3 Zrotation Yrotation Xrotation
				JOINT RightFoot
				{
					OFFSET -2.62261 -7.20556 0.00000
					CHANNELS 3 Zrotation Yrotation Xrotation
					JOINT RightToeBase
					{
						OFFSET -0.18709 -0.51403 2.51340
						CHANNELS 3 Zrotation Yrotation Xrotation
						End Site
						{
							OFFSET -0.00000 -0.00000 1.28858
						}
					}
				}
			}
		}
	}
	JOINT LowerBack
	{
		OFFSET 0 0 0
		CHANNELS 3 Zrotation Yrotation Xrotation
		JOINT Spine
		{
			OFFSET -0.03798 2.19274 -0.19881
			CHANNELS 3 Zrotation Yrotation Xrotation
			JOINT Spine1
			{
				OFFSET -0.00024 2.19460 0.05248
				CHANNELS 3 Zrotation Yrotation Xrotation
				JOINT Neck
				{
					OFFSET 0 0 0
					CHANNELS 3 Zrotation Yrotation Xrotation
					JOINT Neck1
					{
						OFFSET -0.00746 1.82323 0.17286
						CHANNELS 3 Zrotation Yrotation Xrotation
						JOINT Head
						{
							OFFSET 0.11826 1.82121 -0.27841
							CHANNELS 3 Zrotation Yrotation Xrotation
							End Site
							{
								OFFSET 0.03496 1.85543 -0.11495
							}
						}
					}
				}
				JOINT LeftShoulder
				{
					OFFSET 0 0 0
					CHANNELS 3 Zrotation Yrotation Xrotation
					JOINT LeftArm
					{
						OFFSET 3.71926 0.78840 0.25473
						CHANNELS 3 Zrotation Yrotation Xrotation
						JOINT LeftForeArm
						{
							OFFSET 5.37587 -0.00000 0.00000
							CHANNELS 3 Zrotation Yrotation Xrotation
							JOINT LeftHand
							{
								OFFSET 3.35977 -0.00000 0.00000
								CHANNELS 3 Zrotation Yrotation Xrotation
								JOINT LeftFingerBase
								{
									OFFSET 0 0 0
									CHANNELS 3 Zrotation Yrotation Xrotation
									JOINT LeftHandIndex1
									{
										OFFSET 0.56186 -0.00000 0.00000
										CHANNELS 3 Zrotation Yrotation Xrotation
										End Site
										{
											OFFSET 0.45299 -0.00000 0.00000
										}
									}
								}
								JOINT LThumb
								{
									OFFSET 0 0 0
									CHANNELS 3 Zrotation Yrotation Xrotation
									End Site
									{
										OFFSET 0.45990 -0.00000 0.45990
									}
								}
							}
						}
					}
				}
				JOINT RightShoulder
				{
					OFFSET 0 0 0
					CHANNELS 3 Zrotation Yrotation Xrotation
					JOINT RightArm
					{
						OFFSET -3.65136 0.56074 0.01624
						CHANNELS 3 Zrotation Yrotation Xrotation
						JOINT RightForeArm
						{
							OFFSET -5.22819 -0.00000 0.00000
							CHANNELS 3 Zrotation Yrotation Xrotation
							JOINT RightHand
							{
								OFFSET -3.40764 -0.00000 0.00000
								CHANNELS 3 Zrotation Yrotation Xrotation
								JOINT RightFingerBase
								{
									OFFSET 0 0 0
									CHANNELS 3 Zrotation Yrotation Xrotation
									JOINT RightHandIndex1
									{
										OFFSET -0.58325 -0.00000 0.00000
										CHANNELS 3 Zrotation Yrotation Xrotation
										End Site
										{
											OFFSET -0.47024 -0.00000 0.00000
										}
									}
								}
								JOINT RThumb
								{
									OFFSET 0 0 0
									CHANNELS 3 Zrotation Yrotation Xrotation
									End Site
									{
										OFFSET -0.47742 -0.00000 0.47742
									}
								}
							}
						}
					}
				}
			}
		}
	}
}
MOTION
Frames: 10
Frame Time: 0.0188679
0.00 0.00 0.00 -852.7710 -262.5780 953.8160 0.0000 0.0000 0.0000 -23.4885 19.6911 25.8842 0.0000 -0.0000 -0.0000 -0.0341 4.0534 -4.0177 1.0553 -6.5320 -18.3362 0.0000 0.0000 0.0000 8.2864 20.6509 -48.2954 -4.9482 -13.3252 40.5984 -0.8342 3.2996 -16.4600 -0.2202 -3.0210 8.3371 -6.6312 -3.7230 4.6978 0.1555 -5.2122 1.7455 4.0854 -2.6262 -0.2139 -1.8998 0.4149 -3.5874 12.3791 3.2300 -19.0600 4.1007 1.2988 -5.3167 0.0000 -0.0000 0.0000 -55.9243 -20.4788 28.4982 120.6855 -56.1245 -86.2287 -0.0000 0.0000 -23.3200 11.6008 12.8911 2.6223 -7.1250 0.0000 -0.0000 -14.1540 42.6830 0.8272 0.0000 -0.0000 0.0000 52.5932 -51.8310 40.4361 -39.4701 47.7528 -18.0460 0.0000 -0.0000 -18.5310 -1.8117 1.7776 -0.0562 7.1250 -0.0000 -0.0000 18.8941 -27.9801 8.2409
0.00 0.00 0.00 -846.6300 -263.5540 958.9760 0.0000 0.0000 0.0000 -22.3255 18.8279 21.4414 0.5668 4.8218 13.4011 -0.0967 8.7231 4.0317 0.8667 -5.9360 -16.5988 0.0000 0.0000 0.0000 8.9826 18.1439 -46.6309 -6.4818 -14.8795 46.8860 -0.8216 0.7015 -16.9069 -0.4138 -4.1290 11.4399 -4.2117 -4.0485 6.0343 2.1784 -5.5590 1.8038 4.9520 -2.7797 -0.8864 0.2546 0.9523 -3.4590 8.4079 3.4467 -20.0651 2.4593 1.4373 -5.6167 -0.0000 0.0000 0.0000 -66.4284 -11.6258 35.6103 100.7930 -59.5552 -69.3330 -0.0000 0.0000 -20.5557 10.8374 12.9759 2.4614 -7.1250 0.0000 -0.0000 -14.8460 42.6892 0.8672 -0.0000 0.0000 0.0000 57.6431 -44.2381 36.1412 -37.1220 46.2693 -16.3281 0.0000 -0.0000 -17.6535 -4.2212 2.6526 -0.1957 7.1250 -0.0000 -0.0000 16.9735 -27.1847 7.6608
0.00 0.00 0.00 -940.3210 -264.1150 860.1550 0.0000 0.0000 0.0000 -13.8178 -4.1320 -38.5295 2.6880 10.1720 29.5355 0.6757 4.6714 -17.9226 0.7303 -5.4602 -15.2258 0.0000 0.0000 0.0000 30.7057 -7.4951 11.1764 -1.0141 -6.4069 17.9698 -1.1258 -2.1525 -20.9264 -0.1582 -2.5627 7.0637 7.7408 3.4736 3.1219 0.4850 4.9005 0.6959 -3.9625 2.4592 -0.4240 -5.2320 -3.2493 -3.4859 7.9087 -2.8180 -16.7616 3.3692 -1.2212 -4.2063 0.0000 -0.0000 0.0000 -71.2244 36.3609 22.6604 25.1138 -36.3200 -8.3572 -0.0000 0.0000 -16.7650 11.7554 17.7795 3.6359 -7.1250 0.0000 -0.0000 -15.5485 47.4940 -0.9794 0.0000 -0.0000 0.0000 79.9091 11.3318 58.5483 -79.9644 59.6160 -51.3201 0.0000 -0.0000 -5.2054 -22.5400 2.6700 -1.1076 7.1250 -0.0000 -0.0000 3.1062 -27.0860 1.3530
0.00 0.00 0.00 -935.2190 -265.8220 864.8540 0.0000 0.0000 0.0000 -19.7355 1.0098 -8.6290 2.0006 8.8674 25.3815 0.3299 4.2162 -13.2320 0.1605 -2.5811 -7.1145 0.0000 0.0000 0.0000 20.2871 2.1012 -24.5113 -15.4539 -19.4971 76.6004 -0.8021 -0.1698 -16.9900 -0.0866 1.8977 -5.2229 -0.1381 -0.4180 1.9106 -1.4005 -0.5685 -0.0025 -1.3409 -0.2837 -1.0863 -5.9909 -2.6706 -8.6608 14.1448 -2.4079 -6.1759 5.2036 -0.9171 -0.0958 0.0000 0.0000 0.0000 -82.8539 -6.2054 36.3662 92.5679 -59.9751 -62.2237 -0.0000 0.0000 -20.7274 11.7109 12.7436 2.6181 -7.1250 0.0000 -0.0000 -14.0178 42.5487 0.8663 0.0000 0.0000 0.0000 67.8014 -19.7249 59.6955 -21.1793 32.0371 -6.1448 0.0000 -0.0000 -9.9814 -18.4091 5.0290 -1.6712 7.1250 -0.0000 -0.0000 6.1760 -24.6816 3.0497
0.00 0.00 0.00 -829.4860 -261.1580 971.0530 0.0000 0.0000 0.0000 -25.3716 18.7951 29.0731 0.0000 0.0000 0.0000 0.1446 0.9882 -7.6136 2.4424 -9.7325 -28.1147 0.0000 0.0000 0.0000 -0.4899 22.0354 -43.6900 -2.9347 -10.5886 30.9047 -0.6952 3.1483 -14.9976 -0.0408 -1.3045 3.5870 -8.6937 -4.0595 2.8945 0.4975 -5.4811 3.3021 5.3564 -2.9419 2.6948 0.2392 1.1553 -9.6034 8.0788 2.0822 -7.0014 2.5756 1.1692 -0.6693 0.0000 0.0000 0.0000 -71.1675 -17.7848 48.7303 115.7119 -57.3483 -82.0690 -0.0000 0.0000 -17.4501 4.8239 12.2865 1.0288 -7.1250 0.0000 -0.0000 -19.8224 41.4430 1.8193 0.0000 0.0000 0.0000 54.9976 -31.9538 26.3273 -37.2262 46.3379 -16.4035 0.0000 -0.0000 -8.2061 -10.7523 3.5998 -0.6831 7.1250 -0.0000 -0.0000 11.9947 -26.2770 5.5601
0.00 0.00 0.00 -650.8890 -256.7940 1152.3300 0.0000 0.0000 0.0000 -0.6556 -9.2858 -45.9408 4.4859 12.7803 38.5516 0.0035 -0.4285 -1.0552 0.4940 -4.5063 -12.5055 0.0000 0.0000 0.0000 33.9923 -12.9302 21.8983 -0.8469 -5.8697 16.4068 -0.1565 -4.4082 -10.4003 -0.0188 0.8848 -2.4319 5.0929 5.0330 1.1523 -4.7276 6.8802 1.6414 -7.6667 3.6282 2.2501 -10.6043 -8.3335 -11.0061 18.0463 -9.5151 -5.5081 6.7233 -4.1371 1.6796 0.0000 -0.0000 0.0000 -74.9426 27.7813 6.0108 21.8760 -32.8366 -6.5185 -0.0000 0.0000 -22.4491 20.4172 13.7046 5.0398 -7.1250 0.0000 -0.0000 -6.4622 44.4682 0.0852 0.0000 -0.0000 0.0000 85.7559 5.7498 71.1277 -72.0716 58.7500 -44.5387 0.0000 -0.0000 -6.5166 -26.2609 3.4986 -1.7245 7.1250 -0.0000 -0.0000 0.2714 -26.0797 0.1244
0.00 0.00 0.00 -485.2440 -261.8300 1311.1900 0.0000 0.0000 0.0000 -26.4406 16.5655 15.0629 0.1254 2.2824 6.2866 0.5584 -1.7985 -13.6121 0.7425 -5.5044 -15.3530 0.0000 0.0000 0.0000 13.7753 5.8603 -39.8589 -3.3468 -11.2364 33.0812 -0.8489 -8.4793 -22.4592 -0.4977 -4.5230 12.5530 -8.2816 -0.6419 2.7418 -2.2387 -0.8089 3.5144 2.3252 -0.5226 2.2003 -2.2462 -0.6855 -11.6788 10.3389 -0.5982 -1.9985 3.7937 0.0564 1.4755 -0.0000 0.0000 0.0000 -60.3734 -29.7701 26.7567 111.9485 -58.0991 -78.8866 -0.0000 0.0000 -27.4575 14.7372 14.3040 3.7183 -7.1250 0.0000 -0.0000 -11.7494 44.4256 0.1690 -0.0000 0.0000 0.0000 52.4646 -25.0152 18.9336 -23.8029 34.9552 -7.5933 0.0000 -0.0000 -14.9683 -21.4006 0.2145 -0.0841 7.1250 -0.0000 -0.0000 4.0601 -29.7375 1.5149
0.00 0.00 0.00 -469.1710 -261.7710 1329.0800 0.0000 0.0000 0.0000 -23.5504 20.1944 24.6040 0.0000 0.0000 0.0000 0.1058 -4.3877 -6.1223 1.5801 -7.9304 -22.5027 0.0000 0.0000 0.0000 15.6777 1.2031 -41.7956 -2.9537 -10.6198 31.0080 -1.6931 -14.2942 -33.2749 -2.5327 -9.8971 28.6443 -7.3119 -1.4389 0.0260 -0.6950 -1.7996 1.8808 3.3409 -1.0062 2.1382 -1.4562 -0.6231 -13.0446 7.5712 -0.8573 1.0458 2.7215 -0.0939 2.7102 0.0000 -0.0000 0.0000 -66.9980 -15.9699 30.8412 97.0091 -59.8135 -66.0662 -0.0000 0.0000 -26.6128 10.0626 15.8032 2.7668 -7.1250 0.0000 -0.0000 -16.3988 45.3579 -0.1489 0.0000 -0.0000 0.0000 62.1593 -24.6578 -4.6020 -24.1407 35.3127 -7.7877 0.0000 -0.0000 -16.3560 -30.8009 0.9817 -0.5852 7.1250 -0.0000 -0.0000 -3.2971 -28.8305 -1.3005
0.00 0.00 0.00 -462.7630 -262.0880 1335.2000 0.0000 0.0000 0.0000 -21.6473 19.7582 23.4862 0.1808 2.7390 7.5529 -0.0363 -5.1379 -2.2527 1.6270 -8.0417 -22.8409 0.0000 0.0000 0.0000 15.8129 0.8737 -39.3853 -3.4302 -11.3608 33.5067 -0.7295 -16.0206 -28.7323 -2.8672 -10.4770 30.5355 -6.9454 -1.5625 0.1845 0.0742 -2.0249 1.4688 3.9392 -1.1003 1.6606 -0.8663 -0.6729 -13.8131 7.2496 -1.0412 1.5755 2.5059 -0.1667 3.0334 0.0000 -0.0000 0.0000 -71.4239 -9.6391 33.2581 77.2467 -59.3764 -48.9785 -0.0000 0.0000 -23.7606 11.0058 15.8436 3.0394 -7.1250 0.0000 -0.0000 -15.5652 45.5106 -0.2011 0.0000 -0.0000 0.0000 66.5948 -24.0871 -9.0031 -24.0718 35.2401 -7.7480 0.0000 -0.0000 -20.5937 -32.2866 -0.0690 0.0436 7.1250 -0.0000 -0.0000 -4.5113 -30.0459 -1.6509
0.00 0.00 0.00 -458.8600 -262.6300 1338.3200 0.0000 0.0000 0.0000 -18.8973 18.2156 16.4533 1.8959 8.6457 24.6932 -0.1385 -6.8012 4.3102 1.0758 -6.5930 -18.5150 0.0000 0.0000 0.0000 15.8235 1.6407 -37.7070 -4.3894 -12.6613 38.1136 -0.8081 -16.4848 -29.7756 -3.5748 -11.5719 34.2340 -6.4093 -1.6536 1.2971 0.8857 -2.2486 1.2695 4.5159 -1.1834 0.8671 -0.1412 -0.5813 -13.7089 6.9682 -0.9761 1.0552 2.2703 -0.1476 2.8157 0.0000 -0.0000 0.0000 -75.4310 -4.5301 34.9126 54.0998 -54.5209 -29.4816 -0.0000 0.0000 -21.5203 14.3037 15.6821 3.9424 -7.1250 0.0000 -0.0000 -12.5286 45.7545 -0.2370 0.0000 -0.0000 0.0000 70.0092 -22.5020 -9.5679 -22.8286 33.9009 -7.0425 0.0000 -0.0000 -21.1945 -30.9348 -0.6022 0.3609 7.1250 -0.0000 -0.0000 -3.4670 -30.6716 -1.2154
